<svg width="176" height="47" viewBox="0 0 176 47" fill="none" xmlns="http://www.w3.org/2000/svg">
<path d="M50.6266 10.9414C51.4384 10.9414 51.9792 11.4378 51.9792 12.183C51.9792 12.9282 51.4384 13.4246 50.6266 13.4246C49.8147 13.4246 49.2434 12.9282 49.2434 12.183C49.2434 11.4378 49.7842 10.9414 50.6266 10.9414ZM49.4839 15.3845H51.7387V29.1797H49.4839V15.3845Z" fill="white"/>
<path d="M60.4148 17.9958C61.3447 16.5266 62.8768 15.5039 65.2022 15.5039C69.4695 15.5039 72.0415 18.2324 72.0415 22.3245C72.0415 26.4166 69.4695 29.1451 65.2022 29.1451C62.8768 29.1451 61.3447 28.1223 60.4148 26.6531V34.6542H58.3628V15.7671H60.4148V17.997V17.9958ZM64.9289 16.2901C62.9869 16.2901 61.2359 17.2606 60.4148 19.385V25.2605C61.2359 27.3848 62.9869 28.3566 64.9289 28.3566C67.6097 28.3566 69.9351 26.4676 69.9351 22.3233C69.9351 18.179 67.6097 16.2901 64.9289 16.2901Z" fill="white"/>
<path d="M78.4248 15.7719H80.4528V18.749C81.2367 16.9255 82.6421 15.5039 84.5625 15.5039C86.9956 15.5039 88.4559 17.1401 88.4559 19.4734H86.563C86.563 17.6499 85.4815 16.3078 83.9411 16.3078C82.7783 16.3078 81.3992 17.3535 80.454 19.6074V29.1827H78.426V15.7719H78.4248Z" fill="white"/>
<path d="M98.9429 15.5039C103.21 15.5039 105.782 18.2399 105.782 22.3433C105.782 26.4467 103.211 29.1827 98.9429 29.1827C94.6743 29.1827 92.1035 26.4467 92.1035 22.3433C92.1035 18.2399 94.6755 15.5039 98.9429 15.5039ZM98.9429 28.3943C101.624 28.3943 103.676 26.2374 103.676 22.3444C103.676 18.4515 101.624 16.2946 98.9429 16.2946C96.262 16.2946 94.21 18.4515 94.21 22.3444C94.21 26.2374 96.262 28.3943 98.9429 28.3943Z" fill="white"/>
<path d="M122.115 19.2922C121.625 17.2399 119.964 16.2934 118.058 16.2934C115.391 16.2934 113.349 18.1876 113.349 22.3433C113.349 26.499 115.391 28.3931 118.058 28.3931C119.964 28.3931 121.625 27.4467 122.115 25.3944H124.021C123.313 27.735 121.135 29.1827 118.06 29.1827C113.813 29.1827 111.254 26.4467 111.254 22.3433C111.254 18.2399 113.813 15.5039 118.06 15.5039C121.135 15.5039 123.313 16.9504 124.021 19.2922H122.115Z" fill="white"/>
<path d="M141.347 28.9147H139.353V26.2055C138.397 27.9757 136.563 29.1827 134.383 29.1827C131.141 29.1827 129.492 27.4398 129.492 23.8722V15.5039H131.486V23.8722C131.486 26.7687 132.682 28.3788 134.994 28.3788C136.376 28.3788 138.264 27.7077 139.353 25.455V15.5039H141.347V28.9147Z" fill="white"/>
<path d="M148.643 15.7719H150.671V18.749C151.454 16.9255 152.86 15.5039 154.78 15.5039C157.213 15.5039 158.674 17.1401 158.674 19.4734H156.781C156.781 17.6499 155.699 16.3078 154.159 16.3078C152.996 16.3078 151.617 17.3535 150.672 19.6074V29.1827H148.644V15.7719H148.643Z" fill="white"/>
<path d="M165.27 21.6073C165.243 21.8433 165.243 22.0805 165.243 22.3433C165.243 26.499 167.202 28.3931 169.76 28.3931C171.562 28.3931 173.206 27.4467 173.911 25.3944H175.739C174.825 27.7618 172.711 29.1827 169.76 29.1827C165.688 29.1827 163.233 26.4467 163.233 22.3433C163.233 18.2399 165.687 15.5039 169.76 15.5039C173.598 15.5039 175.973 17.9236 176 21.6073H165.27ZM173.964 20.8177C173.755 17.7399 171.981 16.2934 169.761 16.2934C167.542 16.2934 165.767 17.7143 165.35 20.8177H173.965H173.964Z" fill="white"/>
<mask id="mask0_1769_5097" style="mask-type:luminance" maskUnits="userSpaceOnUse" x="24" y="0" width="2" height="1">
<path d="M24.0789 0C24.5185 0 24.9546 0.0155853 25.3883 0.0419592C25.0084 0.0131877 24.6237 0 24.2354 0C24.184 0 24.1314 0 24.0789 0Z" fill="white"/>
</mask>
<g mask="url(#mask0_1769_5097)">
<path d="M25.3883 0H24.0789V0.0419592H25.3883V0Z" fill="url(#paint0_linear_1769_5097)"/>
</g>
<mask id="mask1_1769_5097" style="mask-type:luminance" maskUnits="userSpaceOnUse" x="8" y="0" width="32" height="32">
<path d="M24.081 0C15.485 0.083917 8.54248 7.10298 8.54248 15.7476C17.0776 15.7476 24.0225 22.5845 24.2327 31.0996V31.1104C24.2363 31.319 24.4048 31.4881 24.6127 31.4928C24.621 31.4928 24.6318 31.4928 24.6401 31.4928C24.6473 31.4928 24.6545 31.4928 24.6604 31.4928C33.1334 31.2675 39.9325 24.306 39.9325 15.75C39.9325 7.19408 33.5205 0.63537 25.3904 0.0431556C25.0105 0.014384 24.6258 0.00119633 24.2375 0.00119633C24.1849 0.00119633 24.1336 0.00119633 24.081 0.00119633" fill="white"/>
</mask>
<g mask="url(#mask1_1769_5097)">
<path d="M24.2221 -15.7459L-7.16626 15.75L24.2221 47.2459L55.6104 15.75L24.2221 -15.7459Z" fill="url(#paint1_linear_1769_5097)"/>
</g>
<mask id="mask2_1769_5097" style="mask-type:luminance" maskUnits="userSpaceOnUse" x="0" y="0" width="25" height="19">
<path d="M2.22343 13.9122C2.19834 13.9686 2.17086 14.0261 2.14577 14.0825C2.12068 14.1364 2.09798 14.1916 2.07409 14.2467C2.0717 14.2527 2.06811 14.2575 2.06572 14.2635C1.56514 15.3904 1.14698 16.5628 0.823215 17.7736C0.783789 17.9199 0.746753 18.0661 0.709717 18.2124C2.97371 16.7402 5.65227 15.8543 8.53035 15.7692V15.7476C8.53035 7.84384 14.3331 1.29951 21.8969 0.17143C22.6065 0.0647351 23.3317 0.00719289 24.0701 0C24.0306 0 23.99 0 23.9506 0C14.3271 0 6.02861 5.69676 2.22343 13.9134" fill="white"/>
</mask>
<g mask="url(#mask2_1769_5097)">
<path d="M24.0689 0H0.709717V18.2148H24.0689V0Z" fill="url(#paint2_linear_1769_5097)"/>
</g>
<mask id="mask3_1769_5097" style="mask-type:luminance" maskUnits="userSpaceOnUse" x="0" y="0" width="25" height="47">
<path d="M2.21979 13.9122C2.1947 13.9686 2.16722 14.0261 2.14213 14.0825C2.11704 14.1364 2.09434 14.1916 2.06925 14.2467C2.06687 14.2527 2.06448 14.2587 2.06089 14.2647C1.5603 15.3916 1.14215 16.564 0.818383 17.7748C0.682185 18.2795 0.565102 18.7914 0.462357 19.3093C0.459967 19.3201 0.458772 19.3297 0.456383 19.3405C0.442046 19.416 0.426515 19.4903 0.412178 19.5658C0.397842 19.6426 0.383505 19.7217 0.369168 19.7996C0.36439 19.8284 0.359611 19.8584 0.354832 19.8871C0.330937 20.019 0.308238 20.1509 0.287927 20.2827C0.287927 20.2911 0.285538 20.3007 0.284343 20.3091C0.280759 20.3307 0.27837 20.3535 0.274786 20.375C0.265228 20.4338 0.256865 20.4937 0.248502 20.5537C0.234165 20.6472 0.221023 20.7419 0.207881 20.8366C0.205492 20.8546 0.203102 20.8738 0.200713 20.8917C0.18996 20.9709 0.180403 21.0536 0.16965 21.1423C0.167261 21.1579 0.166066 21.1735 0.163677 21.1902C0.160092 21.2202 0.156508 21.2502 0.152924 21.2813C0.140977 21.388 0.12903 21.4959 0.118277 21.6026C0.118277 21.6098 0.118277 21.6158 0.115888 21.623C0.111109 21.6746 0.10633 21.7249 0.101551 21.7741C0.0967723 21.8328 0.0907987 21.8927 0.0860198 21.9551C0.0860198 21.9611 0.0848251 21.9671 0.0848251 21.9731C0.0848251 21.9755 0.0848251 21.9779 0.0848251 21.9815C0.0752673 22.0929 0.0669043 22.208 0.0585413 22.3279C0.0585413 22.3435 0.0561518 22.3591 0.0549571 22.3747C0.0525677 22.4106 0.0501782 22.4466 0.0477888 22.4838C0.0477888 22.491 0.0477888 22.4981 0.0465941 22.5053C0.0442046 22.5485 0.0406205 22.5928 0.038231 22.6372C0.0370363 22.6576 0.0358416 22.6768 0.0346469 22.6959V22.7007C0.0334522 22.7199 0.0322574 22.7403 0.0310627 22.7595C0.0310627 22.7799 0.0286733 22.8002 0.0274786 22.8206C0.0274786 22.8422 0.0250891 22.8638 0.0238944 22.8866C0.0226997 22.9201 0.021505 22.9561 0.0203102 22.9909C0.0191155 23.0256 0.0179208 23.0616 0.0155314 23.0964C0.0155314 23.1167 0.0143366 23.1371 0.0131419 23.1575C0.0119472 23.1911 0.0107525 23.2258 0.00955776 23.2606C0.00955776 23.2678 0.00955776 23.275 0.00955776 23.2822C0.00955776 23.299 0.00955776 23.3169 0.00836304 23.3337C0.0059736 23.3961 0.00477888 23.4584 0.00358416 23.5195C0.00358416 23.5675 0.00119472 23.6166 0.00119472 23.6646C0.00119472 23.679 0.00119472 23.6934 0.00119472 23.7077C0.00119472 23.7797 0 23.854 0 23.9271C0 23.9595 0 23.9931 0 24.0254C0 32.718 4.59967 40.3329 11.4896 44.5527C11.4896 44.5527 11.492 44.5527 11.4932 44.5551C11.4932 44.5551 11.4944 44.5551 11.4956 44.5563C11.9448 44.8752 12.4287 45.1509 12.9412 45.3727C12.9412 45.3727 12.9424 45.3727 12.9436 45.3739C13.5374 45.6317 14.1682 45.8187 14.8277 45.9242C15.241 45.9913 15.6652 46.0261 16.0977 46.0261C16.6472 46.0261 17.1837 45.9697 17.7022 45.8642C21.3293 45.1198 24.0569 41.8986 24.0569 38.0396C24.0569 37.1932 23.9255 36.3756 23.6829 35.6108C22.9589 33.333 21.2457 31.5 19.0498 30.6201C18.9052 30.5626 18.7595 30.5086 18.6113 30.4595C12.7142 28.1925 8.5291 22.4598 8.5291 15.7476C8.5291 7.10178 15.4716 0.083917 24.0676 0C24.0282 0 23.9876 0 23.9482 0C14.3247 0 6.02617 5.69676 2.22098 13.9134" fill="white"/>
</mask>
<g mask="url(#mask3_1769_5097)">
<path d="M23.2424 -4.37512L-8.31567 1.5625L0.810796 50.4022L32.3689 44.4646L23.2424 -4.37512Z" fill="url(#paint3_linear_1769_5097)"/>
</g>
<defs>
<linearGradient id="paint0_linear_1769_5097" x1="24.1742" y1="0.0426785" x2="24.1742" y2="-0.00527488" gradientUnits="userSpaceOnUse">
<stop stop-color="#EDE347"/>
<stop offset="0.07" stop-color="#BAD86E"/>
<stop offset="0.14" stop-color="#8ECF90"/>
<stop offset="0.21" stop-color="#6AC7AC"/>
<stop offset="0.28" stop-color="#4EC1C2"/>
<stop offset="0.35" stop-color="#3ABDD1"/>
<stop offset="0.42" stop-color="#2EBADA"/>
<stop offset="0.49" stop-color="#2BBADE"/>
<stop offset="0.53" stop-color="#35A7D3"/>
<stop offset="0.64" stop-color="#4983BF"/>
<stop offset="0.72" stop-color="#566DB3"/>
<stop offset="0.77" stop-color="#5B65AF"/>
<stop offset="0.82" stop-color="#6067B0"/>
<stop offset="0.88" stop-color="#7170B4"/>
<stop offset="0.95" stop-color="#8D7EBA"/>
<stop offset="0.99" stop-color="#A188BF"/>
<stop offset="1" stop-color="#A188BF"/>
</linearGradient>
<linearGradient id="paint1_linear_1769_5097" x1="36.6176" y1="27.407" x2="12.7824" y2="3.65318" gradientUnits="userSpaceOnUse">
<stop stop-color="#BDD631"/>
<stop offset="0.59" stop-color="#80C43E"/>
<stop offset="0.99" stop-color="#5CBA47"/>
<stop offset="1" stop-color="#5CBA47"/>
</linearGradient>
<linearGradient id="paint2_linear_1769_5097" x1="11.9667" y1="17.66" x2="11.9667" y2="-0.593149" gradientUnits="userSpaceOnUse">
<stop stop-color="#EDE347"/>
<stop offset="0.07" stop-color="#BAD86E"/>
<stop offset="0.14" stop-color="#8ECF90"/>
<stop offset="0.21" stop-color="#6AC7AC"/>
<stop offset="0.28" stop-color="#4EC1C2"/>
<stop offset="0.35" stop-color="#3ABDD1"/>
<stop offset="0.42" stop-color="#2EBADA"/>
<stop offset="0.49" stop-color="#2BBADE"/>
<stop offset="0.53" stop-color="#35A7D3"/>
<stop offset="0.64" stop-color="#4983BF"/>
<stop offset="0.72" stop-color="#566DB3"/>
<stop offset="0.77" stop-color="#5B65AF"/>
<stop offset="0.82" stop-color="#6067B0"/>
<stop offset="0.88" stop-color="#7170B4"/>
<stop offset="0.95" stop-color="#8D7EBA"/>
<stop offset="0.99" stop-color="#A188BF"/>
<stop offset="1" stop-color="#A188BF"/>
</linearGradient>
<linearGradient id="paint3_linear_1769_5097" x1="16.2627" y1="46.5436" x2="7.73484" y2="1.2187" gradientUnits="userSpaceOnUse">
<stop stop-color="#D7DF23"/>
<stop offset="0.99" stop-color="#66CAD9"/>
<stop offset="1" stop-color="#66CAD9"/>
</linearGradient>
</defs>
</svg>
