<svg width="254" height="68" viewBox="0 0 254 68" fill="none" xmlns="http://www.w3.org/2000/svg">
<path d="M73.0665 16.5898C74.2381 16.5898 75.0185 17.3062 75.0185 18.3817C75.0185 19.4571 74.2381 20.1735 73.0665 20.1735C71.8949 20.1735 71.0703 19.4571 71.0703 18.3817C71.0703 17.3062 71.8507 16.5898 73.0665 16.5898ZM71.4174 23.0021H74.6714V42.9112H71.4174V23.0021Z" fill="#00394D"/>
<path d="M87.19 26.7721C88.532 24.6518 90.7431 23.1758 94.099 23.1758C100.258 23.1758 103.97 27.1135 103.97 33.0192C103.97 38.9248 100.258 42.8625 94.099 42.8625C90.7431 42.8625 88.532 41.3865 87.19 39.2662V50.8132H84.2285V23.5557H87.19V26.7737V26.7721ZM93.7046 24.3104C90.9019 24.3104 88.375 25.7111 87.19 28.7769V37.2564C88.375 40.3222 90.9019 41.7246 93.7046 41.7246C97.5736 41.7246 100.929 38.9985 100.929 33.0175C100.929 27.0365 97.5736 24.3104 93.7046 24.3104Z" fill="#00394D"/>
<path d="M113.184 23.5625H116.11V27.8591C117.242 25.2274 119.27 23.1758 122.041 23.1758C125.553 23.1758 127.66 25.5371 127.66 28.9046H124.928C124.928 26.2729 123.368 24.3359 121.145 24.3359C119.467 24.3359 117.476 25.8451 116.112 29.0979V42.9168H113.185V23.5625H113.184Z" fill="#00394D"/>
<path d="M142.794 23.1758C148.953 23.1758 152.665 27.1243 152.665 33.0463C152.665 38.9683 148.955 42.9168 142.794 42.9168C136.634 42.9168 132.924 38.9683 132.924 33.0463C132.924 27.1243 136.636 23.1758 142.794 23.1758ZM142.794 41.779C146.663 41.779 149.625 38.6662 149.625 33.048C149.625 27.4297 146.663 24.3169 142.794 24.3169C138.925 24.3169 135.964 27.4297 135.964 33.048C135.964 38.6662 138.925 41.779 142.794 41.779Z" fill="#00394D"/>
<path d="M176.235 28.643C175.528 25.6812 173.132 24.3152 170.381 24.3152C166.531 24.3152 163.584 27.0488 163.584 33.0463C163.584 39.0438 166.531 41.7774 170.381 41.7774C173.132 41.7774 175.528 40.4114 176.235 37.4496H178.985C177.964 40.8276 174.821 42.9168 170.383 42.9168C164.254 42.9168 160.561 38.9683 160.561 33.0463C160.561 27.1243 164.254 23.1758 170.383 23.1758C174.821 23.1758 177.964 25.2633 178.985 28.643H176.235Z" fill="#00394D"/>
<path d="M203.992 42.5301H201.114V38.6202C199.734 41.1749 197.087 42.9168 193.942 42.9168C189.262 42.9168 186.883 40.4015 186.883 35.2527V23.1758H189.76V35.2527C189.76 39.433 191.486 41.7567 194.823 41.7567C196.817 41.7567 199.542 40.7882 201.114 37.5371V23.1758H203.992V42.5301Z" fill="#00394D"/>
<path d="M214.521 23.5625H217.448V27.8591C218.58 25.2274 220.608 23.1758 223.379 23.1758C226.891 23.1758 228.998 25.5371 228.998 28.9046H226.266C226.266 26.2729 224.706 24.3359 222.482 24.3359C220.804 24.3359 218.814 25.8451 217.45 29.0979V42.9168H214.523V23.5625H214.521Z" fill="#00394D"/>
<path d="M238.514 31.9841C238.475 32.3247 238.475 32.667 238.475 33.0463C238.475 39.0438 241.302 41.7774 244.994 41.7774C247.594 41.7774 249.967 40.4114 250.985 37.4496H253.623C252.304 40.8662 249.253 42.9168 244.994 42.9168C239.117 42.9168 235.574 38.9683 235.574 33.0463C235.574 27.1243 239.115 23.1758 244.994 23.1758C250.533 23.1758 253.961 26.6679 253.999 31.9841H238.514ZM251.061 30.8446C250.76 26.4027 248.198 24.3152 244.996 24.3152C241.793 24.3152 239.232 26.3658 238.629 30.8446H251.063H251.061Z" fill="#00394D"/>
<mask id="mask0_4081_11153" style="mask-type:luminance" maskUnits="userSpaceOnUse" x="34" y="0" width="3" height="1">
<path d="M34.7461 0.800781C35.3806 0.800781 36.0099 0.823274 36.6358 0.861336C36.0875 0.819814 35.5323 0.800781 34.972 0.800781C34.8978 0.800781 34.822 0.800781 34.7461 0.800781Z" fill="white"/>
</mask>
<g mask="url(#mask0_4081_11153)">
<path d="M36.6358 0.800781H34.7461V0.861336H36.6358V0.800781Z" fill="url(#paint0_linear_4081_11153)"/>
</g>
<mask id="mask1_4081_11153" style="mask-type:luminance" maskUnits="userSpaceOnUse" x="12" y="0" width="46" height="47">
<path d="M34.7531 0.800781C22.3475 0.921889 12.3281 11.0517 12.3281 23.5276C24.6458 23.5276 34.6686 33.3944 34.9721 45.6834V45.699C34.9773 46 35.2204 46.2439 35.5204 46.2509C35.5325 46.2509 35.548 46.2509 35.5601 46.2509C35.5704 46.2509 35.5807 46.2509 35.5894 46.2509C47.8174 45.9256 57.6299 35.8788 57.6299 23.531C57.6299 11.1832 48.3761 1.71774 36.6429 0.863063C36.0946 0.82154 35.5394 0.802508 34.979 0.802508C34.9031 0.802508 34.829 0.802508 34.7531 0.802508" fill="white"/>
</mask>
<g mask="url(#mask1_4081_11153)">
<path d="M34.9555 -21.9232L-10.3438 23.5312L34.9555 68.9857L80.2547 23.5312L34.9555 -21.9232Z" fill="url(#paint1_linear_4081_11153)"/>
</g>
<mask id="mask2_4081_11153" style="mask-type:luminance" maskUnits="userSpaceOnUse" x="1" y="0" width="34" height="28">
<path d="M3.20996 20.8788C3.17375 20.9601 3.13409 21.0431 3.09788 21.1244C3.06168 21.2023 3.02892 21.2819 2.99443 21.3614C2.99098 21.3701 2.98581 21.377 2.98236 21.3857C2.25992 23.012 1.65645 24.704 1.18919 26.4514C1.13229 26.6625 1.07884 26.8736 1.02539 27.0847C4.29276 24.9601 8.15843 23.6815 12.312 23.5587V23.5276C12.312 12.1209 20.6865 2.67622 31.6024 1.04819C32.6266 0.894206 33.6732 0.811162 34.7388 0.800781C34.6819 0.800781 34.6232 0.800781 34.5663 0.800781C20.6779 0.800781 8.70155 9.02227 3.20996 20.8805" fill="white"/>
</mask>
<g mask="url(#mask2_4081_11153)">
<path d="M34.737 0.800781H1.02539V27.0881H34.737V0.800781Z" fill="url(#paint2_linear_4081_11153)"/>
</g>
<mask id="mask3_4081_11153" style="mask-type:luminance" maskUnits="userSpaceOnUse" x="0" y="0" width="35" height="68">
<path d="M3.20357 20.8787C3.16736 20.9601 3.12771 21.0431 3.0915 21.1244C3.05529 21.2023 3.02253 21.2819 2.98632 21.3614C2.98287 21.3701 2.97943 21.3788 2.97425 21.3874C2.25181 23.0137 1.64834 24.7058 1.18108 26.4532C0.984521 27.1815 0.815549 27.9203 0.667267 28.6677C0.663819 28.6833 0.662094 28.6971 0.658646 28.7127C0.637956 28.8217 0.615541 28.929 0.594851 29.038C0.57416 29.1487 0.55347 29.2629 0.532779 29.3753C0.525882 29.4169 0.518986 29.4601 0.512089 29.5016C0.477605 29.6919 0.444845 29.8823 0.415533 30.0726C0.415533 30.0847 0.412085 30.0985 0.410361 30.1106C0.405188 30.1418 0.40174 30.1746 0.396567 30.2058C0.382773 30.2906 0.370704 30.3771 0.358635 30.4636C0.337944 30.5985 0.318978 30.7352 0.300012 30.8719C0.296563 30.8978 0.293115 30.9255 0.289666 30.9515C0.274148 31.0657 0.260355 31.185 0.244837 31.3131C0.241389 31.3356 0.239664 31.358 0.236216 31.3823C0.231043 31.4255 0.225871 31.4688 0.220698 31.5138C0.203456 31.6677 0.186214 31.8234 0.170696 31.9774C0.170696 31.9878 0.170696 31.9964 0.167248 32.0068C0.160351 32.0812 0.153454 32.1539 0.146557 32.2248C0.139661 32.3096 0.13104 32.3961 0.124143 32.4861C0.124143 32.4947 0.122419 32.5034 0.122419 32.512C0.122419 32.5155 0.122419 32.519 0.122419 32.5241C0.108625 32.685 0.0965554 32.8511 0.084486 33.0241C0.084486 33.0466 0.0810376 33.0691 0.0793134 33.0916C0.075865 33.1435 0.0724166 33.1954 0.0689682 33.2491C0.0689682 33.2594 0.0689682 33.2698 0.067244 33.2802C0.0637956 33.3425 0.0586229 33.4065 0.0551745 33.4705C0.0534503 33.4999 0.0517261 33.5276 0.0500019 33.5553V33.5622C0.0482777 33.5899 0.0465535 33.6193 0.0448293 33.647C0.0448293 33.6764 0.0413809 33.7058 0.0396567 33.7352C0.0396567 33.7664 0.0362083 33.7975 0.0344841 33.8304C0.0327599 33.8788 0.0310357 33.9307 0.0293115 33.9809C0.0275873 34.0311 0.0258631 34.083 0.0224147 34.1331C0.0224147 34.1626 0.0206905 34.192 0.0189662 34.2214C0.017242 34.2698 0.0155178 34.32 0.0137936 34.3702C0.0137936 34.3806 0.0137936 34.3909 0.0137936 34.4013C0.0137936 34.4255 0.0137936 34.4515 0.0120694 34.4757C0.00862102 34.5657 0.00689682 34.6556 0.00517261 34.7439C0.00517261 34.8131 0.0017242 34.884 0.0017242 34.9532C0.0017242 34.974 0.0017242 34.9947 0.0017242 35.0155C0.0017242 35.1193 0 35.2266 0 35.3321C0 35.3788 0 35.4273 0 35.474C0 48.019 6.63819 59.0087 16.5817 65.0987C16.5817 65.0987 16.5851 65.0987 16.5868 65.1022C16.5868 65.1022 16.5886 65.1022 16.5903 65.1039C17.2386 65.5641 17.9369 65.962 18.6766 66.2821C18.6766 66.2821 18.6783 66.2821 18.68 66.2838C19.537 66.6558 20.4473 66.9257 21.3991 67.078C21.9957 67.1748 22.6078 67.225 23.2319 67.225C24.0251 67.225 24.7992 67.1437 25.5475 66.9915C30.7822 65.9171 34.7186 61.2682 34.7186 55.699C34.7186 54.4775 34.5289 53.2976 34.1789 52.1938C33.134 48.9066 30.6615 46.2612 27.4924 44.9913C27.2838 44.9083 27.0735 44.8304 26.8597 44.7595C18.349 41.4879 12.3091 33.2145 12.3091 23.5276C12.3091 11.05 22.3284 0.921889 34.7341 0.800781C34.6772 0.800781 34.6186 0.800781 34.5617 0.800781C20.6732 0.800781 8.69689 9.02227 3.2053 20.8805" fill="white"/>
</mask>
<g mask="url(#mask3_4081_11153)">
<path d="M33.5423 -5.51051L-12.002 3.05859L1.16925 73.5434L46.7135 64.9743L33.5423 -5.51051Z" fill="url(#paint3_linear_4081_11153)"/>
</g>
<defs>
<linearGradient id="paint0_linear_4081_11153" x1="34.8837" y1="0.862374" x2="34.8837" y2="0.793169" gradientUnits="userSpaceOnUse">
<stop stop-color="#EDE347"/>
<stop offset="0.07" stop-color="#BAD86E"/>
<stop offset="0.14" stop-color="#8ECF90"/>
<stop offset="0.21" stop-color="#6AC7AC"/>
<stop offset="0.28" stop-color="#4EC1C2"/>
<stop offset="0.35" stop-color="#3ABDD1"/>
<stop offset="0.42" stop-color="#2EBADA"/>
<stop offset="0.49" stop-color="#2BBADE"/>
<stop offset="0.53" stop-color="#35A7D3"/>
<stop offset="0.64" stop-color="#4983BF"/>
<stop offset="0.72" stop-color="#566DB3"/>
<stop offset="0.77" stop-color="#5B65AF"/>
<stop offset="0.82" stop-color="#6067B0"/>
<stop offset="0.88" stop-color="#7170B4"/>
<stop offset="0.95" stop-color="#8D7EBA"/>
<stop offset="0.99" stop-color="#A188BF"/>
<stop offset="1" stop-color="#A188BF"/>
</linearGradient>
<linearGradient id="paint1_linear_4081_11153" x1="52.8446" y1="40.3544" x2="18.4459" y2="6.07328" gradientUnits="userSpaceOnUse">
<stop stop-color="#BDD631"/>
<stop offset="0.59" stop-color="#80C43E"/>
<stop offset="0.99" stop-color="#5CBA47"/>
<stop offset="1" stop-color="#5CBA47"/>
</linearGradient>
<linearGradient id="paint2_linear_4081_11153" x1="17.2714" y1="26.2875" x2="17.2714" y2="-0.0552443" gradientUnits="userSpaceOnUse">
<stop stop-color="#EDE347"/>
<stop offset="0.07" stop-color="#BAD86E"/>
<stop offset="0.14" stop-color="#8ECF90"/>
<stop offset="0.21" stop-color="#6AC7AC"/>
<stop offset="0.28" stop-color="#4EC1C2"/>
<stop offset="0.35" stop-color="#3ABDD1"/>
<stop offset="0.42" stop-color="#2EBADA"/>
<stop offset="0.49" stop-color="#2BBADE"/>
<stop offset="0.53" stop-color="#35A7D3"/>
<stop offset="0.64" stop-color="#4983BF"/>
<stop offset="0.72" stop-color="#566DB3"/>
<stop offset="0.77" stop-color="#5B65AF"/>
<stop offset="0.82" stop-color="#6067B0"/>
<stop offset="0.88" stop-color="#7170B4"/>
<stop offset="0.95" stop-color="#8D7EBA"/>
<stop offset="0.99" stop-color="#A188BF"/>
<stop offset="1" stop-color="#A188BF"/>
</linearGradient>
<linearGradient id="paint3_linear_4081_11153" x1="23.4692" y1="67.9748" x2="11.1619" y2="2.56243" gradientUnits="userSpaceOnUse">
<stop stop-color="#D7DF23"/>
<stop offset="0.99" stop-color="#66CAD9"/>
<stop offset="1" stop-color="#66CAD9"/>
</linearGradient>
</defs>
</svg>
