<?xml version="1.0" encoding="UTF-8"?>
<svg xmlns="http://www.w3.org/2000/svg" xmlns:xlink="http://www.w3.org/1999/xlink" width="72px" height="92px" viewBox="0 0 72 91" version="1.1">
<g id="surface1">
<path style=" stroke:none;fill-rule:nonzero;fill:rgb(19.215687%,62.7451%,31.37255%);fill-opacity:1;" d="M 72 61.640625 C 72 70.710938 68.761719 76.136719 62.378906 81.574219 C 56.121094 86.898438 46.429688 88.632812 37.378906 88.632812 C 32.6875 88.632812 28.316406 87.890625 24.253906 86.40625 C 23.972656 86.308594 23.691406 86.203125 23.421875 86.097656 C 23.113281 85.972656 22.804688 85.847656 22.496094 85.710938 C 22.195312 85.585938 21.902344 85.453125 21.605469 85.304688 L 21.277344 85.742188 L 18.972656 88.796875 L 17.609375 90.601562 C 17.164062 91.207031 16.226562 91.042969 16.003906 90.332031 L 15.589844 88.796875 L 8.808594 63.414062 C 8.664062 62.84375 9.078125 62.292969 9.671875 62.265625 L 21.257812 61.996094 L 37.589844 61.621094 C 38.335938 61.621094 38.769531 62.476562 38.316406 63.085938 L 32.976562 70.179688 C 33.324219 70.246094 33.664062 70.316406 34.03125 70.375 L 34.039062 70.375 C 34.289062 70.410156 34.550781 70.449219 34.8125 70.480469 C 34.921875 70.488281 35.027344 70.507812 35.140625 70.507812 C 39.464844 70.972656 44.222656 69.699219 46.371094 65.59375 C 47.53125 63.375 47.589844 60.558594 46.3125 58.398438 C 43.71875 54.023438 37.230469 51.96875 32.878906 50.234375 C 29.34375 48.824219 26.328125 47.417969 24.582031 46.375 C 23.730469 45.867188 23.207031 44.957031 23.207031 43.96875 C 23.207031 35.746094 25.035156 29.914062 28.652344 26.625 C 29.03125 26.28125 29.433594 25.960938 29.855469 25.667969 C 31.101562 24.800781 32.808594 25.039062 33.726562 26.25 C 37.019531 30.597656 46.359375 35.507812 49.050781 36.5625 C 54.863281 38.839844 61.292969 41.382812 65.914062 45.730469 C 66.417969 46.195312 66.882812 46.6875 67.308594 47.21875 C 70.421875 51.132812 72 55.980469 72 61.640625 Z M 72 61.640625 "/>
<path style=" stroke:none;fill-rule:nonzero;fill:rgb(19.215687%,62.7451%,31.37255%);fill-opacity:1;" d="M 71.0625 29.953125 C 71.148438 30.539062 70.65625 31.050781 70.066406 31 L 43.257812 28.398438 C 42.496094 28.332031 42.148438 27.414062 42.679688 26.855469 L 47.390625 21.921875 C 47.738281 21.527344 47.679688 20.9375 47.300781 20.617188 L 47.332031 20.589844 C 47.273438 20.5625 47.214844 20.542969 47.15625 20.511719 C 47.152344 20.511719 47.144531 20.507812 47.136719 20.503906 C 47.128906 20.492188 47.117188 20.492188 47.109375 20.484375 C 47.097656 20.472656 47.089844 20.472656 47.089844 20.472656 L 47.066406 20.472656 C 46.835938 20.367188 46.605469 20.269531 46.371094 20.183594 C 45.667969 19.90625 44.941406 19.664062 44.207031 19.492188 C 43.566406 19.335938 42.929688 19.222656 42.28125 19.164062 C 42.25 19.152344 42.222656 19.152344 42.203125 19.152344 C 41.390625 19.066406 40.558594 19.058594 39.738281 19.144531 C 34.117188 19.289062 29.707031 20.871094 26.351562 23.917969 C 25.558594 24.640625 24.824219 25.449219 24.175781 26.335938 C 20.964844 30.636719 19.339844 36.84375 19.339844 44.828125 L 19.339844 46.070312 C 19.332031 46.097656 19.332031 46.136719 19.332031 46.167969 C 19.3125 48.480469 19.265625 50.804688 19.273438 52.796875 C 19.285156 54.207031 19.292969 56.316406 19.304688 58.101562 C 19.3125 58.601562 18.90625 59.007812 18.414062 59.019531 L 6.527344 59.296875 L 5.230469 59.324219 C 4.640625 59.355469 4.214844 59.90625 4.378906 60.484375 L 4.707031 61.71875 L 11.351562 86.570312 C 11.507812 87.160156 11.070312 87.726562 10.460938 87.726562 L 4.402344 87.726562 C 1.96875 87.726562 -0.00390625 85.761719 -0.00390625 83.335938 L -0.00390625 4.273438 C 0 2.976562 1.054688 1.925781 2.351562 1.925781 L 16.765625 1.925781 C 18.132812 1.925781 19.3125 3.046875 19.347656 4.410156 C 19.375 5.316406 19.480469 5.859375 19.960938 5.859375 C 20.320312 5.859375 20.890625 5.550781 21.789062 4.859375 C 21.953125 4.691406 22.183594 4.609375 22.378906 4.492188 C 27.078125 1.019531 33.441406 0.046875 41.160156 0.0273438 L 41.21875 0.0273438 C 47.378906 0.0273438 52.996094 1.976562 58.027344 5.097656 C 58.597656 5.445312 59.167969 5.820312 59.71875 6.207031 C 59.988281 6.378906 60.257812 6.574219 60.519531 6.765625 C 60.65625 6.863281 60.996094 7.09375 61.316406 7.316406 L 62.382812 6.207031 C 62.476562 6.113281 62.5625 6.007812 62.640625 5.898438 L 65.492188 1.9375 C 66.027344 1.378906 66.964844 1.675781 67.070312 2.4375 Z M 71.0625 29.953125 "/>
</g>
</svg>
